<?xml version="1.0" standalone="no"?><!DOCTYPE svg PUBLIC "-//W3C//DTD SVG 1.1//EN" "http://www.w3.org/Graphics/SVG/1.1/DTD/svg11.dtd"><svg class="icon" width="200px" height="199.80px" viewBox="0 0 1025 1024" version="1.1" xmlns="http://www.w3.org/2000/svg"><path fill="#62C989" d="M1025.005 510.17s-244.12-313.158-513.895-313.158C241.338 197.013 0.001 510.17 0.001 510.17s241.338 317.072 511.109 317.072c269.776 0 513.895-317.072 513.895-317.072M511.11 756.965c-197.228 0-369.518-183.627-421.662-247.108 52.144-61.202 224.434-247.103 421.662-247.103 197.232 0 369.527 183.628 421.665 247.103-52.143 63.481-224.433 247.108-421.665 247.108z m0 0M512.854 367.155c-79.342 0-145.089 65.742-145.089 145.093 0 79.346 65.747 145.089 145.089 145.089 79.346 0 145.088-65.743 145.088-145.089 0-79.352-65.742-145.093-145.088-145.093z m0 224.439c-43.07 0-77.075-34.01-77.075-77.079 0-43.074 34.005-77.084 77.075-77.084 43.078 0 77.079 34.01 77.079 77.084-0.001 43.069-34.001 77.079-77.079 77.079z m0 0" /></svg>