<?xml version="1.0" standalone="no"?><!DOCTYPE svg PUBLIC "-//W3C//DTD SVG 1.1//EN" "http://www.w3.org/Graphics/SVG/1.1/DTD/svg11.dtd"><svg class="icon" width="200px" height="200.00px" viewBox="0 0 1024 1024" version="1.1" xmlns="http://www.w3.org/2000/svg"><path fill="#62C989" d="M540.8 707.968a192 192 0 1 1 192-192 192 192 0 0 1-192 192z m0-371.2a179.2 179.2 0 1 0 179.2 179.2 179.2 179.2 0 0 0-179.2-179.2zM534.4 121.6h12.8v153.6h-12.8zM534.4 755.2h12.8v153.6h-12.8zM780.8 509.568h153.6v12.8H780.8zM140.8 509.568h153.6v12.8H140.8zM257.088 239.0912l9.0496-9.0496 108.608 108.608-9.0496 9.0496zM705.0496 687.0912l9.0496-9.0496 108.608 108.608-9.0496 9.0496zM705.6256 339.264l108.608-108.608 9.0496 9.0496-108.608 108.6208zM253.0176 791.7824l108.608-108.608 9.0496 9.0496-108.608 108.608z" /></svg>