<?xml version="1.0" standalone="no"?><!DOCTYPE svg PUBLIC "-//W3C//DTD SVG 1.1//EN" "http://www.w3.org/Graphics/SVG/1.1/DTD/svg11.dtd"><svg class="icon" width="200px" height="200.00px" viewBox="0 0 1024 1024" version="1.1" xmlns="http://www.w3.org/2000/svg"><path fill="#5b872b" d="M823.669904 142.714376l-0.437975-0.075725-57.368592-11.264555-75.468832-14.81952L436.524516 66.703191c-4.64581-0.929162-9.328459-1.384533-13.898545-1.384533-32.743752 0-57.467853 23.453155-57.467853 54.529941l0 53.846372-140.417053-22.317285c-4.64581-0.737804-9.320273-1.11745-13.889335-1.11745-32.762171 0-57.466829 18.99768-57.466829 44.157709l0 282.107099 0 137.762597 0 215.310787c0 25.161053 24.695448 44.140313 57.44841 44.140313 4.580319 0 9.262968-0.3776 13.908778-1.100054l140.417053-22.334681 0 53.847395c0 31.093159 24.706705 54.528917 57.450457 54.528917 4.587482 0 9.271154-0.454348 13.916964-1.366114l253.871011-49.880037 75.468832-14.82873 57.805544-11.357675c26.316366-5.157463 46.944172-31.322379 46.944172-59.572794L870.616122 614.287641 870.616122 476.525044 870.616122 202.325032C870.614076 174.09406 850.005712 147.928121 823.669904 142.714376zM765.823428 514.350534l0 62.283532c0 20.780279-16.856923 37.617759-37.654598 37.617759-20.799722 0-37.674041-16.83748-37.674041-37.617759l0-62.283532c0-20.780279 16.874319-37.616736 37.674041-37.616736C748.966505 476.734822 765.823428 493.570255 765.823428 514.350534zM365.158119 818.242799l-147.944494 23.529903c-2.179642 0.360204-4.324492 0.530073-6.380314 0.530073-8.56098 0-18.570961-3.317559-18.570961-12.703323L192.26235 614.287641 192.26235 476.525044 192.26235 194.417945c0-9.384741 10.021238-12.722766 18.590404-12.722766 2.058892 0 4.191462 0.190335 6.380314 0.532119l147.926074 23.528879 0 270.768867 0 137.762597L365.159142 818.242799z" /></svg>